<svg id="ePAQLvXJBFK1" xmlns="http://www.w3.org/2000/svg" xmlns:xlink="http://www.w3.org/1999/xlink" viewBox="0 0 1350 900" shape-rendering="geometricPrecision" text-rendering="geometricPrecision"><rect id="ePAQLvXJBFK2" width="77.667102" height="77.667102" rx="20" ry="20" transform="translate(932.53 467.775949)" fill="#fff" stroke="#000" stroke-width="10"/><rect id="ePAQLvXJBFK3" width="77.667102" height="77.667102" rx="20" ry="20" transform="translate(1226 467.775949)" fill="#fff" stroke="#000" stroke-width="10"/><rect id="ePAQLvXJBFK4" width="77.667102" height="77.667102" rx="20" ry="20" transform="translate(1226 467.775949)" fill="#fff" stroke="#000" stroke-width="10"/><rect id="ePAQLvXJBFK5" width="77.667102" height="77.667102" rx="20" ry="20" transform="translate(1226 467.775949)" fill="#fff" stroke="#000" stroke-width="10"/><rect id="ePAQLvXJBFK6" width="77.667102" height="77.667102" rx="20" ry="20" transform="translate(1226 467.775949)" fill="#fff" stroke="#000" stroke-width="10"/><rect id="ePAQLvXJBFK7" width="77.667102" height="77.667102" rx="20" ry="20" transform="translate(1226 467.775949)" fill="#fff" stroke="#000" stroke-width="10"/><rect id="ePAQLvXJBFK8" width="77.667102" height="77.667102" rx="20" ry="20" transform="translate(1226 467.775949)" fill="#fff" stroke="#090000" stroke-width="10"/><rect id="ePAQLvXJBFK9" width="77.667102" height="77.667102" rx="20" ry="20" transform="matrix(1.1 0 0 1.1 1222.116645 463.892594)" fill="#fff" stroke="#000" stroke-width="10"/><rect id="ePAQLvXJBFK10" width="77.667102" height="77.667102" rx="20" ry="20" transform="translate(638 467.775987)" fill="#fff" stroke="#000" stroke-width="10"/><g id="ePAQLvXJBFK11" transform="translate(-106.895341 159.812075)"><path d="M0,0C0,0,0,0,0,0h469.177184c0,0,0,0,0,0v82.993677c0,19.882251-16.117749,36-36,36h-397.177184c-19.882251,0-36-16.117749-36-36L0,0Z" transform="matrix(1 0 0 0.846315 215.822521 355.1125)" fill="#f6a230" stroke="#000" stroke-width="10"/><path d="M14.985601,-120.125537l-5.87536,142.3039-94.737164,33.999591L14.985601,-120.125537Z" transform="matrix(.447409 0.797008-.810237 0.454835 365.909632 397.395023)" fill="#ffe285" stroke="#000" stroke-width="10"/><line x1="74.255397" y1="0" x2="-74.255397" y2="0" transform="translate(610.333194 386.64608)" fill="none" stroke="#000" stroke-width="10"/></g><g id="ePAQLvXJBFK15" transform="translate(-106.921244 190.034601)"><path d="M-241.028388,0c0-62.598205,26.520087-125.78833,241.028388-125.78833s241.028388,63.201481,241.028388,125.78833c0,4.234607-170.098426,5.688348-242.427076,5.688348s-239.6297-.537096-239.6297-5.688348Z" transform="matrix(.973282 0 0 1 451.282269 238.601519)" fill="#f6a230" stroke="#000" stroke-width="10"/><path d="M0,47.555394C0,10.645637,21.293337,0,47.56,0h415.401143c26.266663,0,47.56,10.03098,47.56,47.555394s-21.293337,47.555394-47.56,47.555394h-415.401143C21.293337,95.110788,0,84.465151,0,47.555394Z" transform="matrix(1.004686 0 0 0.704272 190.980297 264.995478)" fill="#d53349" stroke="#000" stroke-width="10"/><path d="M242.29943,323.13623h415.40114c25.46573,0,34.792753,2.043203,33.327818,16.444899s-12.599621,17.991642-25.475564,17.991642c-44.03102,0-41.417325,36.307329-71.543815,36.307329s-36.337679-30.18191-80.368699-30.18191-50.045456,30.18191-79.081741,30.18191-35.503493-36.307329-79.534513-36.307329-44.041168,36.307329-80.243736,36.307329-23.251611-30.18191-65.808708-30.18191c-12.247786-13.354589,9.436868-40.56196,33.327818-40.56196Z" transform="matrix(1.013076 0 0 1-10.558723-82.846363)" fill="#08aa6e" stroke="#000" stroke-width="10"/><rect width="27.597994" height="12.879063" rx="0" ry="0" transform="translate(307.70705 165.672466)" stroke-width="0"/><rect width="27.597994" height="12.879063" rx="0" ry="0" transform="translate(391.63639 165.672466)" stroke-width="0"/><rect width="27.597994" height="12.879063" rx="0" ry="0" transform="translate(469.944473 165.672466)" stroke-width="0"/><rect width="27.597994" height="12.879063" rx="0" ry="0" transform="translate(557.878902 165.672465)" stroke-width="0"/><rect width="27.597994" height="12.879063" rx="0" ry="0" transform="translate(508.479803 139.672466)" stroke-width="0"/><rect width="27.597994" height="12.879063" rx="0" ry="0" transform="translate(429.891886 139.672466)" stroke-width="0"/><rect width="27.597994" height="12.879063" rx="0" ry="0" transform="translate(352.015904 139.672466)" stroke-width="0"/></g>
</svg>