<svg id="eHEi8Yzb7ta1" xmlns="http://www.w3.org/2000/svg" xmlns:xlink="http://www.w3.org/1999/xlink" viewBox="0 0 600 800" shape-rendering="geometricPrecision" text-rendering="geometricPrecision"><g id="eHEi8Yzb7ta2" transform="matrix(.8 0 0 0.8 64.284874 301.849296)"><rect width="314.408141" height="314.408141" rx="0" ry="0" transform="matrix(.853774-.60441 0.831789 0.582425 35.022734 217.435748)" fill="#f36f4b" stroke-width="0"/><path d="M296.5439,400.55484L44.20088,223.86235L296.65392,393.33747L520.9945,241.66015L296.5439,400.55484Z" fill="#fd815f" stroke-width="0"/><rect width="313.462622" height="51.444809" rx="0" ry="0" transform="matrix(.834873 0.584585 0 1.220775 35.070402 217.220789)" fill="#d65533" stroke="#e15f3b"/><path d="M-0.027883,-1.1901L321.368389,0.486548l-.008943,51.482881L-0.047342,50.820961L-0.027883,-1.1901Z" transform="matrix(-.834636 0.584419 0 1.220775 564.937597 212.012819)" fill="#e15f3b" stroke="#e15f3b"/></g><g id="eHEi8Yzb7ta7" transform="matrix(.8 0 0 0.8 64.401592 204.589296)"><rect width="314.408141" height="314.408141" rx="0" ry="0" transform="matrix(.853774-.60441 0.831789 0.582425 35.022734 217.435748)" fill="#53bb63" stroke-width="0"/><path d="M296.5439,400.55484L44.20088,223.86235L296.65392,393.33747L520.9945,241.66015L296.5439,400.55484Z" fill="#68d379" stroke-width="0"/><rect width="313.462622" height="51.444809" rx="0" ry="0" transform="matrix(.834873 0.584585 0 1.220775 35.070402 217.220789)" fill="#309e40" stroke-width="0"/><path d="M-0.027883,-1.1901L321.368389,0.486548l-.008943,51.482881L-0.047342,50.820961L-0.027883,-1.1901Z" transform="matrix(-.834636 0.584419 0 1.220775 564.937597 212.012819)" fill="#45ae55" stroke-width="0"/></g><g id="eHEi8Yzb7ta12" transform="translate(0 98.64)"><g transform="matrix(.803454 0 0 0.803454 63.287064 3.623342)"><rect width="314.408141" height="314.408141" rx="0" ry="0" transform="matrix(.853774-.60441 0.831789 0.582425 35.022734 217.435748)" fill="#fcbd67" stroke-width="0"/><path d="M296.5439,400.55484L44.20088,223.86235L296.65392,393.33747L520.9945,241.66015L296.5439,400.55484Z" fill="#ffcf91" stroke-width="0"/><rect width="313.462622" height="51.444809" rx="0" ry="0" transform="matrix(.834873 0.584585 0 1.220775 35.070402 217.220789)" fill="#e88b1b" stroke="#e88b1b"/><path d="M-0.027883,-1.1901L321.368389,0.486548l-.008943,51.482881L-0.047342,50.820961L-0.027883,-1.1901Z" transform="matrix(-.834636 0.584419 0 1.220775 564.937597 212.012819)" fill="#f7941e" stroke="#f7941e"/></g><g transform="translate(4.284949 10.740299)"><rect width="16.980809" height="16.980809" rx="4" ry="4" transform="matrix(.938997-.461003 0.728626 0.707245 163.69309 171.205565)" fill="#ffedd4" stroke-width="0"/><rect width="16.980809" height="16.980809" rx="4" ry="4" transform="matrix(.853774-.60441 0.831789 0.582425 186.003234 125.164628)" fill="#ffedd4" stroke-width="0"/><rect width="16.980809" height="16.980809" rx="4" ry="4" transform="matrix(.853774-.60441 0.831789 0.582425 200.501 215.087924)" fill="#ffedd4" stroke-width="0"/><rect width="16.980809" height="16.980809" rx="4" ry="4" transform="matrix(.691402-.489462 0.667627 0.467477 223.744268 163.59287)" fill="#ffedd4" stroke-width="0"/><rect width="16.980809" height="16.980809" rx="4" ry="4" transform="matrix(.708247-.769823 0.935326 0.395293 264.056319 223.212855)" fill="#ffedd4" stroke-width="0"/><rect width="16.980809" height="16.980809" rx="4" ry="4" transform="matrix(.708247-.769823 0.935326 0.395293 387.818972 206.281384)" fill="#ffedd4" stroke-width="0"/><rect width="16.980809" height="16.980809" rx="4" ry="4" transform="matrix(.853774-.60441 0.831789 0.582425 288.042444 180.196624)" fill="#ffedd4" stroke-width="0"/><rect width="16.980809" height="16.980809" rx="4" ry="4" transform="matrix(.853774-.60441 0.831789 0.582425 319.116198 104.40803)" fill="#ffedd4" stroke-width="0"/><rect width="16.980809" height="16.980809" rx="4" ry="4" transform="matrix(.634067-.448873 0.61774 0.432546 372.166922 167.795937)" fill="#ffedd4" stroke-width="0"/><rect width="16.980809" height="16.980809" rx="4" ry="4" transform="matrix(.853774-.60441 0.831789 0.582425 274.192922 267.769325)" fill="#ffedd4" stroke-width="0"/><rect width="16.980809" height="16.980809" rx="4" ry="4" transform="matrix(.641784-.454336 0.591314 0.414042 280.949326 73.500953)" fill="#ffedd4" stroke-width="0"/><rect width="16.980809" height="16.980809" rx="4" ry="4" transform="matrix(.853774-.60441 0.831789 0.582425 329.352641 152.947282)" fill="#ffedd4" stroke-width="0"/><rect width="16.980809" height="16.980809" rx="4" ry="4" transform="matrix(.853774-.60441 0.831789 0.582425 428.555805 164.992508)" fill="#ffedd4" stroke-width="0"/><rect width="16.980809" height="16.980809" rx="4" ry="4" transform="matrix(.61061-.432268 0.594887 0.416544 334.400922 238.342971)" fill="#ffedd4" stroke-width="0"/><rect width="16.980809" height="16.980809" rx="4" ry="4" transform="matrix(.708247-.769823 0.935326 0.395293 369.311723 109.505673)" fill="#ffedd4" stroke-width="0"/><rect width="16.980809" height="16.980809" rx="4" ry="4" transform="matrix(.890221-.549316 0.793369 0.633765 252.443165 123.074087)" fill="#ffedd4" stroke-width="0"/></g></g></svg>
